ply
format ascii 1.0
comment Copyright raymond exporter research team
element vertex 4
property float x
property float y
property float z
property float nx
property float ny
property float nz
property float s
property float t
element face 2
property list uchar uint vertex_indices
property uchar material_index
end_header
0.500000 -0.500000 0.000000 -0.000000 0.000000 1.000000 1.000000 -1.000000
-0.500000 0.500000 0.000000 -0.000000 0.000000 1.000000 -1.000000 1.000000
-0.500000 -0.500000 0.000000 -0.000000 0.000000 1.000000 -1.000000 -1.000000
0.500000 0.500000 0.000000 -0.000000 0.000000 1.000000 1.000000 1.000000
3 0 1 2 0
3 0 3 1 0
